# xmcd CD database file
#
# Track frame offsets:
#	150
#	1632
#	22117
#	59706
#	81031
#	106733
#	117198
#	137193
#	160922
#	179804
#	200650
#	230313
#	259976
#	290233
#
# Disc length: 4121 seconds
#
# Revision: 0
# Processed by: cddbd v1.4PL0 Copyright (c) Steve Scherf et al.
# Submitted via: CDex 1.40Release
#
DISCID=cb10170e
DTITLE=Oficina Blues - Gate's Pub Ao Vivo
DYEAR=2003
DGENRE=Blues
TTITLE0=Introdução
TTITLE1=Steamroller Blues
TTITLE2=Blue Jeans Blues
TTITLE3=Se Ferrou Jack
TTITLE4=Você Sempre Obedece Alguém
TTITLE5=Ganhei No Bingão
TTITLE6=Trem Do Pantanal
TTITLE7=Crônicas Cariocas
TTITLE8=E Willie Viu O Blues
TTITLE9=Down In Mississipi
TTITLE10=Me And The Devil - Crossroads
TTITLE11=Walk On The Wild Side
TTITLE12=Mustang Sally
TTITLE13=Down In Mississipi (Studio Version)
EXTD=YEAR: 2003 ID3G: 0
EXTT0=
EXTT1=
EXTT2=
EXTT3=
EXTT4=
EXTT5=
EXTT6=
EXTT7=
EXTT8=
EXTT9=
EXTT10=
EXTT11=
EXTT12=
EXTT13=
PLAYORDER=
